<?xml version="1.0" encoding="UTF-8" standalone="no"?>
<!-- Created with Inkscape (http://www.inkscape.org/) -->

<svg
   version="1.0"
   width="120"
   height="120"
   id="svg2593"
   xml:space="preserve"
   sodipodi:docname="OpenID_logo_2.svg"
   inkscape:version="1.3.2 (091e20e, 2023-11-25)"
   xmlns:inkscape="http://www.inkscape.org/namespaces/inkscape"
   xmlns:sodipodi="http://sodipodi.sourceforge.net/DTD/sodipodi-0.dtd"
   xmlns="http://www.w3.org/2000/svg"
   xmlns:svg="http://www.w3.org/2000/svg"><sodipodi:namedview
     id="namedview1"
     pagecolor="#505050"
     bordercolor="#eeeeee"
     borderopacity="1"
     inkscape:showpageshadow="0"
     inkscape:pageopacity="0"
     inkscape:pagecheckerboard="0"
     inkscape:deskcolor="#505050"
     showgrid="false"
     inkscape:zoom="5.3731101"
     inkscape:cx="69.60587"
     inkscape:cy="65.883631"
     inkscape:window-width="1512"
     inkscape:window-height="945"
     inkscape:window-x="0"
     inkscape:window-y="37"
     inkscape:window-maximized="0"
     inkscape:current-layer="svg2593" /><defs
     id="defs2596"><clipPath
       id="clipPath2616"><path
         d="M 0,14400 H 14400 V 0 H 0 Z"
         id="path2618" /></clipPath></defs><g
     transform="matrix(1.25,0,0,-1.25,-8601.6804,9121.1624)"
     id="g2602"><g
       transform="matrix(0.375,0,0,0.375,4301.4506,4557.5812)"
       id="g2734"><g
         id="g2726"><g
           transform="translate(6998.0969,7259.1135)"
           id="g2604"><path
             d="M 0,0 V -159.939 -180 l 32,15.061 V 15.633 Z"
             id="path2606"
             style="fill:#f8931e;fill-opacity:1;fill-rule:nonzero;stroke:none" /></g><g
           transform="translate(7108.9192,7206.3137)"
           id="g2608"><path
             d="M 0,0 4.417,-45.864 -57.466,-32.4"
             id="path2610"
             style="fill:#b3b3b3;fill-opacity:1;fill-rule:nonzero;stroke:none" /></g><g
           transform="translate(6934.0969,7147.6213)"
           id="g2620"><path
             d="M 0,0 C 0,22.674 24.707,41.769 58.383,47.598 V 67.923 C 6.873,61.697 -32,33.656 -32,0 -32,-34.869 9.725,-63.709 64,-68.508 v 20.061 C 27.484,-43.869 0,-23.919 0,0 M 101.617,67.915 V 47.598 c 13.399,-2.319 25.385,-6.727 34.951,-12.64 l 22.627,13.984 c -15.42,9.531 -35.322,16.283 -57.578,18.973"
             id="path2622"
             style="fill:#b3b3b3;fill-opacity:1;fill-rule:nonzero;stroke:none" /></g></g></g></g></svg>
